<svg xmlns="http://www.w3.org/2000/svg" xmlns:xlink="http://www.w3.org/1999/xlink" width="500" zoomAndPan="magnify" viewBox="0 0 375 374.999991" height="500" preserveAspectRatio="xMidYMid meet" version="1.0"><defs><filter x="0%" y="0%" width="100%" height="100%" id="id1"><feColorMatrix values="0 0 0 0 1 0 0 0 0 1 0 0 0 0 1 0 0 0 1 0" color-interpolation-filters="sRGB"/></filter><g/><mask id="id2"><g filter="url(#id1)"><rect x="-37.5" width="450" fill="#000000" y="-37.499999" height="449.999989" fill-opacity="0.7098"/></g></mask><clipPath id="id3"><path d="M 0.992188 0.992188 L 282.242188 0.992188 L 282.242188 282.242188 L 0.992188 282.242188 Z M 0.992188 0.992188 " clip-rule="nonzero"/></clipPath><clipPath id="id4"><rect x="0" width="283" y="0" height="283"/></clipPath></defs><path fill="#0f4c75" d="M 187.5 0 C 83.949219 0 0 83.949219 0 187.5 C 0 291.050781 83.949219 375 187.5 375 C 291.050781 375 375 291.050781 375 187.5 C 375 83.949219 291.050781 0 187.5 0 Z M 21.355469 197.917969 L 62.84375 197.917969 C 63.800781 224.019531 68.28125 248.65625 75.644531 270.832031 L 43.3125 270.832031 C 30.738281 249.136719 23 224.386719 21.355469 197.917969 Z M 197.917969 83.332031 L 197.917969 21.675781 C 226.53125 26.21875 251.6875 49.332031 268.738281 83.332031 Z M 277.613281 104.167969 C 285.46875 125.863281 290.3125 150.625 291.332031 177.082031 L 197.917969 177.082031 L 197.917969 104.167969 Z M 177.082031 21.675781 L 177.082031 83.332031 L 106.261719 83.332031 C 123.300781 49.332031 148.46875 26.21875 177.082031 21.675781 Z M 177.082031 104.167969 L 177.082031 177.082031 L 83.667969 177.082031 C 84.6875 150.625 89.53125 125.863281 97.386719 104.167969 Z M 62.855469 177.082031 L 21.355469 177.082031 C 23 150.625 30.738281 125.863281 43.300781 104.167969 L 75.636719 104.167969 C 68.292969 126.34375 63.8125 150.988281 62.855469 177.082031 Z M 83.667969 197.917969 L 177.082031 197.917969 L 177.082031 270.832031 L 97.386719 270.832031 C 89.53125 249.136719 84.6875 224.386719 83.667969 197.917969 Z M 177.082031 291.667969 L 177.082031 353.324219 C 148.46875 348.769531 123.300781 325.667969 106.261719 291.667969 Z M 197.917969 353.324219 L 197.917969 291.667969 L 268.75 291.667969 C 251.699219 325.667969 226.53125 348.769531 197.917969 353.324219 Z M 197.917969 270.832031 L 197.917969 197.917969 L 291.34375 197.917969 C 290.3125 224.386719 285.480469 249.136719 277.625 270.832031 Z M 312.15625 197.917969 L 353.636719 197.917969 C 352 224.386719 344.261719 249.136719 331.6875 270.832031 L 299.355469 270.832031 C 306.707031 248.65625 311.1875 224.019531 312.15625 197.917969 Z M 312.15625 177.082031 C 311.1875 150.988281 306.707031 126.34375 299.355469 104.167969 L 331.6875 104.167969 C 344.261719 125.863281 352 150.625 353.636719 177.082031 Z M 317.488281 83.332031 L 291.417969 83.332031 C 283.949219 66.625 274.6875 51.925781 264.136719 39.59375 C 284.855469 50.34375 303.011719 65.28125 317.488281 83.332031 Z M 110.863281 39.59375 C 100.300781 51.925781 91.042969 66.625 83.574219 83.332031 L 57.511719 83.332031 C 71.988281 65.28125 90.144531 50.355469 110.863281 39.59375 Z M 57.511719 291.667969 L 83.582031 291.667969 C 91.042969 308.375 100.300781 323.074219 110.863281 335.394531 C 90.144531 324.644531 71.988281 309.71875 57.511719 291.667969 Z M 264.136719 335.394531 C 274.699219 323.0625 283.949219 308.375 291.417969 291.667969 L 317.488281 291.667969 C 303.011719 309.71875 284.855469 324.644531 264.136719 335.394531 Z M 264.136719 335.394531 " fill-opacity="1" fill-rule="nonzero"/><g mask="url(#id2)"><g transform="matrix(1, 0, 0, 1, 46, 46)"><g clip-path="url(#id4)"><g clip-path="url(#id3)"><path fill="#ffffff" d="M 282.242188 141.617188 C 282.242188 143.917969 282.1875 146.21875 282.074219 148.515625 C 281.960938 150.816406 281.789062 153.109375 281.566406 155.402344 C 281.339844 157.691406 281.058594 159.976562 280.71875 162.25 C 280.382812 164.527344 279.988281 166.792969 279.539062 169.050781 C 279.089844 171.308594 278.585938 173.554688 278.027344 175.785156 C 277.46875 178.019531 276.855469 180.234375 276.1875 182.4375 C 275.519531 184.640625 274.796875 186.824219 274.023438 188.992188 C 273.246094 191.160156 272.417969 193.304688 271.539062 195.433594 C 270.65625 197.558594 269.722656 199.660156 268.742188 201.742188 C 267.757812 203.824219 266.722656 205.878906 265.636719 207.90625 C 264.550781 209.9375 263.417969 211.9375 262.234375 213.914062 C 261.050781 215.886719 259.820312 217.832031 258.542969 219.746094 C 257.265625 221.65625 255.9375 223.539062 254.566406 225.386719 C 253.195312 227.234375 251.78125 229.050781 250.320312 230.828125 C 248.863281 232.609375 247.359375 234.351562 245.8125 236.054688 C 244.269531 237.761719 242.679688 239.425781 241.054688 241.054688 C 239.425781 242.679688 237.761719 244.269531 236.054688 245.8125 C 234.351562 247.359375 232.609375 248.863281 230.828125 250.320312 C 229.050781 251.78125 227.234375 253.195312 225.386719 254.566406 C 223.539062 255.9375 221.65625 257.265625 219.746094 258.542969 C 217.832031 259.820312 215.886719 261.050781 213.914062 262.234375 C 211.9375 263.417969 209.9375 264.550781 207.90625 265.636719 C 205.878906 266.722656 203.824219 267.757812 201.742188 268.742188 C 199.660156 269.722656 197.558594 270.65625 195.433594 271.539062 C 193.304688 272.417969 191.160156 273.246094 188.992188 274.023438 C 186.824219 274.796875 184.640625 275.519531 182.4375 276.1875 C 180.234375 276.855469 178.019531 277.46875 175.785156 278.027344 C 173.554688 278.585938 171.308594 279.089844 169.050781 279.539062 C 166.792969 279.988281 164.527344 280.382812 162.25 280.71875 C 159.976562 281.058594 157.691406 281.339844 155.402344 281.566406 C 153.109375 281.789062 150.816406 281.960938 148.515625 282.074219 C 146.21875 282.1875 143.917969 282.242188 141.617188 282.242188 C 139.316406 282.242188 137.015625 282.1875 134.71875 282.074219 C 132.417969 281.960938 130.125 281.789062 127.832031 281.566406 C 125.542969 281.339844 123.257812 281.058594 120.984375 280.71875 C 118.707031 280.382812 116.441406 279.988281 114.183594 279.539062 C 111.925781 279.089844 109.679688 278.585938 107.449219 278.027344 C 105.214844 277.46875 103 276.855469 100.796875 276.1875 C 98.59375 275.519531 96.410156 274.796875 94.242188 274.023438 C 92.074219 273.246094 89.929688 272.417969 87.800781 271.539062 C 85.675781 270.65625 83.574219 269.722656 81.492188 268.742188 C 79.410156 267.757812 77.355469 266.722656 75.328125 265.636719 C 73.296875 264.550781 71.296875 263.417969 69.320312 262.234375 C 67.347656 261.050781 65.402344 259.820312 63.488281 258.542969 C 61.578125 257.265625 59.695312 255.9375 57.847656 254.566406 C 56 253.195312 54.183594 251.78125 52.40625 250.320312 C 50.625 248.863281 48.882812 247.359375 47.179688 245.8125 C 45.472656 244.269531 43.808594 242.679688 42.179688 241.054688 C 40.554688 239.425781 38.964844 237.761719 37.421875 236.054688 C 35.875 234.351562 34.371094 232.609375 32.914062 230.828125 C 31.453125 229.050781 30.035156 227.234375 28.667969 225.386719 C 27.296875 223.539062 25.96875 221.65625 24.691406 219.746094 C 23.414062 217.832031 22.183594 215.886719 21 213.914062 C 19.816406 211.9375 18.683594 209.9375 17.597656 207.90625 C 16.511719 205.878906 15.476562 203.824219 14.492188 201.742188 C 13.507812 199.660156 12.578125 197.558594 11.695312 195.433594 C 10.816406 193.304688 9.988281 191.160156 9.210938 188.992188 C 8.4375 186.824219 7.714844 184.640625 7.046875 182.4375 C 6.378906 180.234375 5.765625 178.019531 5.207031 175.785156 C 4.648438 173.554688 4.144531 171.308594 3.695312 169.050781 C 3.246094 166.792969 2.851562 164.527344 2.515625 162.25 C 2.175781 159.976562 1.894531 157.691406 1.667969 155.402344 C 1.445312 153.109375 1.273438 150.816406 1.160156 148.515625 C 1.046875 146.21875 0.992188 143.917969 0.992188 141.617188 C 0.992188 139.316406 1.046875 137.015625 1.160156 134.71875 C 1.273438 132.417969 1.445312 130.125 1.667969 127.832031 C 1.894531 125.542969 2.175781 123.257812 2.515625 120.984375 C 2.851562 118.707031 3.246094 116.441406 3.695312 114.183594 C 4.144531 111.925781 4.648438 109.679688 5.207031 107.449219 C 5.765625 105.214844 6.378906 103 7.046875 100.796875 C 7.714844 98.59375 8.4375 96.410156 9.210938 94.242188 C 9.988281 92.074219 10.816406 89.929688 11.695312 87.800781 C 12.578125 85.675781 13.507812 83.574219 14.492188 81.492188 C 15.476562 79.410156 16.511719 77.355469 17.597656 75.328125 C 18.683594 73.296875 19.816406 71.296875 21 69.320312 C 22.183594 67.347656 23.414062 65.402344 24.691406 63.488281 C 25.96875 61.578125 27.296875 59.695312 28.667969 57.847656 C 30.035156 56 31.453125 54.183594 32.914062 52.40625 C 34.371094 50.625 35.875 48.882812 37.421875 47.179688 C 38.964844 45.472656 40.554688 43.808594 42.179688 42.179688 C 43.808594 40.554688 45.472656 38.964844 47.179688 37.421875 C 48.882812 35.875 50.625 34.371094 52.40625 32.914062 C 54.183594 31.453125 56 30.035156 57.847656 28.667969 C 59.695312 27.296875 61.578125 25.96875 63.488281 24.691406 C 65.402344 23.414062 67.347656 22.183594 69.320312 21 C 71.296875 19.816406 73.296875 18.683594 75.328125 17.597656 C 77.355469 16.511719 79.410156 15.476562 81.492188 14.492188 C 83.574219 13.507812 85.675781 12.578125 87.800781 11.695312 C 89.929688 10.816406 92.074219 9.988281 94.242188 9.210938 C 96.410156 8.4375 98.59375 7.714844 100.796875 7.046875 C 103 6.378906 105.214844 5.765625 107.449219 5.207031 C 109.679688 4.648438 111.925781 4.144531 114.183594 3.695312 C 116.441406 3.246094 118.707031 2.851562 120.984375 2.515625 C 123.257812 2.175781 125.542969 1.894531 127.832031 1.667969 C 130.125 1.445312 132.417969 1.273438 134.71875 1.160156 C 137.015625 1.046875 139.316406 0.992188 141.617188 0.992188 C 143.917969 0.992188 146.21875 1.046875 148.515625 1.160156 C 150.816406 1.273438 153.109375 1.445312 155.402344 1.667969 C 157.691406 1.894531 159.976562 2.175781 162.25 2.515625 C 164.527344 2.851562 166.792969 3.246094 169.050781 3.695312 C 171.308594 4.144531 173.554688 4.648438 175.785156 5.207031 C 178.019531 5.765625 180.234375 6.378906 182.4375 7.046875 C 184.640625 7.714844 186.824219 8.4375 188.992188 9.210938 C 191.160156 9.988281 193.304688 10.816406 195.433594 11.695312 C 197.558594 12.578125 199.660156 13.507812 201.742188 14.492188 C 203.824219 15.476562 205.878906 16.511719 207.90625 17.597656 C 209.9375 18.683594 211.9375 19.816406 213.914062 21 C 215.886719 22.183594 217.832031 23.414062 219.746094 24.691406 C 221.65625 25.96875 223.539062 27.296875 225.386719 28.667969 C 227.234375 30.035156 229.050781 31.453125 230.828125 32.914062 C 232.609375 34.371094 234.351562 35.875 236.054688 37.421875 C 237.761719 38.964844 239.425781 40.554688 241.054688 42.179688 C 242.679688 43.808594 244.269531 45.472656 245.8125 47.179688 C 247.359375 48.882812 248.863281 50.625 250.320312 52.40625 C 251.78125 54.183594 253.195312 56 254.566406 57.847656 C 255.9375 59.695312 257.265625 61.578125 258.542969 63.488281 C 259.820312 65.402344 261.050781 67.347656 262.234375 69.320312 C 263.417969 71.296875 264.550781 73.296875 265.636719 75.328125 C 266.722656 77.355469 267.757812 79.410156 268.742188 81.492188 C 269.722656 83.574219 270.65625 85.675781 271.539062 87.800781 C 272.417969 89.929688 273.246094 92.074219 274.023438 94.242188 C 274.796875 96.410156 275.519531 98.59375 276.1875 100.796875 C 276.855469 103 277.46875 105.214844 278.027344 107.449219 C 278.585938 109.679688 279.089844 111.925781 279.539062 114.183594 C 279.988281 116.441406 280.382812 118.707031 280.71875 120.984375 C 281.058594 123.257812 281.339844 125.542969 281.566406 127.832031 C 281.789062 130.125 281.960938 132.417969 282.074219 134.71875 C 282.1875 137.015625 282.242188 139.316406 282.242188 141.617188 Z M 282.242188 141.617188 " fill-opacity="1" fill-rule="nonzero"/></g></g></g></g><g fill="#000000" fill-opacity="1"><g transform="translate(56.484375, 167.987934)"><g><path d="M 2.9375 0 L 2.9375 -27.125 L 10.296875 -27.125 L 10.296875 0 Z M 2.9375 0 "/></g></g></g><g fill="#000000" fill-opacity="1"><g transform="translate(69.711146, 167.987934)"><g><path d="M 15.765625 0 L 15.765625 -11.46875 C 15.765625 -12.863281 15.5625 -13.914062 15.15625 -14.625 C 14.757812 -15.34375 14.117188 -15.703125 13.234375 -15.703125 C 12.003906 -15.703125 11.117188 -15.210938 10.578125 -14.234375 C 10.035156 -13.253906 9.765625 -11.578125 9.765625 -9.203125 L 9.765625 0 L 2.5 0 L 2.5 -21.015625 L 7.984375 -21.015625 L 8.890625 -18.421875 L 9.3125 -18.421875 C 9.9375 -19.410156 10.796875 -20.148438 11.890625 -20.640625 C 12.984375 -21.140625 14.238281 -21.390625 15.65625 -21.390625 C 17.988281 -21.390625 19.800781 -20.710938 21.09375 -19.359375 C 22.382812 -18.015625 23.03125 -16.117188 23.03125 -13.671875 L 23.03125 0 Z M 15.765625 0 "/></g></g></g><g fill="#000000" fill-opacity="1"><g transform="translate(95.162942, 167.987934)"><g><path d="M 12.796875 -5.359375 C 13.773438 -5.359375 14.945312 -5.601562 16.3125 -6.09375 L 16.3125 -0.796875 C 15.332031 -0.378906 14.398438 -0.0820312 13.515625 0.09375 C 12.628906 0.28125 11.59375 0.375 10.40625 0.375 C 7.96875 0.375 6.210938 -0.21875 5.140625 -1.40625 C 4.066406 -2.601562 3.53125 -4.441406 3.53125 -6.921875 L 3.53125 -15.59375 L 0.984375 -15.59375 L 0.984375 -18.53125 L 4.21875 -20.8125 L 6.09375 -25.234375 L 10.84375 -25.234375 L 10.84375 -21.015625 L 16 -21.015625 L 16 -15.59375 L 10.84375 -15.59375 L 10.84375 -7.40625 C 10.84375 -6.039062 11.492188 -5.359375 12.796875 -5.359375 Z M 12.796875 -5.359375 "/></g></g></g><g fill="#000000" fill-opacity="1"><g transform="translate(112.637863, 167.987934)"><g><path d="M 12.65625 0.375 C 9.15625 0.375 6.4375 -0.554688 4.5 -2.421875 C 2.5625 -4.285156 1.59375 -6.9375 1.59375 -10.375 C 1.59375 -13.925781 2.488281 -16.648438 4.28125 -18.546875 C 6.082031 -20.441406 8.644531 -21.390625 11.96875 -21.390625 C 15.132812 -21.390625 17.578125 -20.5625 19.296875 -18.90625 C 21.023438 -17.257812 21.890625 -14.882812 21.890625 -11.78125 L 21.890625 -8.546875 L 8.921875 -8.546875 C 8.972656 -7.378906 9.40625 -6.457031 10.21875 -5.78125 C 11.03125 -5.113281 12.132812 -4.78125 13.53125 -4.78125 C 14.800781 -4.78125 15.96875 -4.898438 17.03125 -5.140625 C 18.101562 -5.390625 19.265625 -5.804688 20.515625 -6.390625 L 20.515625 -1.171875 C 19.378906 -0.585938 18.203125 -0.1875 16.984375 0.03125 C 15.773438 0.257812 14.332031 0.375 12.65625 0.375 Z M 12.234375 -16.453125 C 11.378906 -16.453125 10.660156 -16.179688 10.078125 -15.640625 C 9.503906 -15.109375 9.171875 -14.269531 9.078125 -13.125 L 15.3125 -13.125 C 15.28125 -14.132812 14.988281 -14.941406 14.4375 -15.546875 C 13.894531 -16.148438 13.160156 -16.453125 12.234375 -16.453125 Z M 12.234375 -16.453125 "/></g></g></g><g fill="#000000" fill-opacity="1"><g transform="translate(136.123266, 167.987934)"><g><path d="M 15.203125 -21.390625 C 15.828125 -21.390625 16.425781 -21.34375 17 -21.25 L 17.40625 -21.171875 L 16.75 -14.328125 C 16.15625 -14.472656 15.332031 -14.546875 14.28125 -14.546875 C 12.695312 -14.546875 11.546875 -14.179688 10.828125 -13.453125 C 10.117188 -12.734375 9.765625 -11.691406 9.765625 -10.328125 L 9.765625 0 L 2.5 0 L 2.5 -21.015625 L 7.90625 -21.015625 L 9.03125 -17.671875 L 9.390625 -17.671875 C 9.992188 -18.773438 10.835938 -19.671875 11.921875 -20.359375 C 13.003906 -21.046875 14.097656 -21.390625 15.203125 -21.390625 Z M 15.203125 -21.390625 "/></g></g></g><g fill="#000000" fill-opacity="1"><g transform="translate(153.950654, 167.987934)"><g><path d="M 15.765625 0 L 15.765625 -11.46875 C 15.765625 -12.863281 15.5625 -13.914062 15.15625 -14.625 C 14.757812 -15.34375 14.117188 -15.703125 13.234375 -15.703125 C 12.003906 -15.703125 11.117188 -15.210938 10.578125 -14.234375 C 10.035156 -13.253906 9.765625 -11.578125 9.765625 -9.203125 L 9.765625 0 L 2.5 0 L 2.5 -21.015625 L 7.984375 -21.015625 L 8.890625 -18.421875 L 9.3125 -18.421875 C 9.9375 -19.410156 10.796875 -20.148438 11.890625 -20.640625 C 12.984375 -21.140625 14.238281 -21.390625 15.65625 -21.390625 C 17.988281 -21.390625 19.800781 -20.710938 21.09375 -19.359375 C 22.382812 -18.015625 23.03125 -16.117188 23.03125 -13.671875 L 23.03125 0 Z M 15.765625 0 "/></g></g></g><g fill="#000000" fill-opacity="1"><g transform="translate(179.40245, 167.987934)"><g><path d="M 16.21875 0 L 14.828125 -2.78125 L 14.671875 -2.78125 C 13.703125 -1.570312 12.707031 -0.742188 11.6875 -0.296875 C 10.675781 0.148438 9.363281 0.375 7.75 0.375 C 5.769531 0.375 4.210938 -0.21875 3.078125 -1.40625 C 1.941406 -2.59375 1.375 -4.265625 1.375 -6.421875 C 1.375 -8.660156 2.148438 -10.328125 3.703125 -11.421875 C 5.265625 -12.515625 7.523438 -13.128906 10.484375 -13.265625 L 13.984375 -13.375 L 13.984375 -13.671875 C 13.984375 -15.398438 13.132812 -16.265625 11.4375 -16.265625 C 9.894531 -16.265625 7.941406 -15.75 5.578125 -14.71875 L 3.484375 -19.5 C 5.929688 -20.757812 9.023438 -21.390625 12.765625 -21.390625 C 15.460938 -21.390625 17.550781 -20.722656 19.03125 -19.390625 C 20.507812 -18.054688 21.25 -16.1875 21.25 -13.78125 L 21.25 0 Z M 10.84375 -4.75 C 11.71875 -4.75 12.46875 -5.023438 13.09375 -5.578125 C 13.71875 -6.140625 14.03125 -6.863281 14.03125 -7.75 L 14.03125 -9.390625 L 12.359375 -9.3125 C 9.972656 -9.226562 8.78125 -8.351562 8.78125 -6.6875 C 8.78125 -5.394531 9.46875 -4.75 10.84375 -4.75 Z M 10.84375 -4.75 "/></g></g></g><g fill="#000000" fill-opacity="1"><g transform="translate(203.073362, 167.987934)"><g><path d="M 12.796875 -5.359375 C 13.773438 -5.359375 14.945312 -5.601562 16.3125 -6.09375 L 16.3125 -0.796875 C 15.332031 -0.378906 14.398438 -0.0820312 13.515625 0.09375 C 12.628906 0.28125 11.59375 0.375 10.40625 0.375 C 7.96875 0.375 6.210938 -0.21875 5.140625 -1.40625 C 4.066406 -2.601562 3.53125 -4.441406 3.53125 -6.921875 L 3.53125 -15.59375 L 0.984375 -15.59375 L 0.984375 -18.53125 L 4.21875 -20.8125 L 6.09375 -25.234375 L 10.84375 -25.234375 L 10.84375 -21.015625 L 16 -21.015625 L 16 -15.59375 L 10.84375 -15.59375 L 10.84375 -7.40625 C 10.84375 -6.039062 11.492188 -5.359375 12.796875 -5.359375 Z M 12.796875 -5.359375 "/></g></g></g><g fill="#000000" fill-opacity="1"><g transform="translate(220.548283, 167.987934)"><g><path d="M 9.796875 0 L 2.546875 0 L 2.546875 -21.015625 L 9.796875 -21.015625 Z M 2.359375 -26.25 C 2.359375 -27.34375 2.660156 -28.15625 3.265625 -28.6875 C 3.867188 -29.21875 4.847656 -29.484375 6.203125 -29.484375 C 7.546875 -29.484375 8.523438 -29.207031 9.140625 -28.65625 C 9.765625 -28.113281 10.078125 -27.3125 10.078125 -26.25 C 10.078125 -24.125 8.785156 -23.0625 6.203125 -23.0625 C 3.640625 -23.0625 2.359375 -24.125 2.359375 -26.25 Z M 2.359375 -26.25 "/></g></g></g><g fill="#000000" fill-opacity="1"><g transform="translate(232.903163, 167.987934)"><g><path d="M 22.578125 -10.5625 C 22.578125 -7.125 21.648438 -4.441406 19.796875 -2.515625 C 17.953125 -0.585938 15.367188 0.375 12.046875 0.375 C 8.847656 0.375 6.304688 -0.609375 4.421875 -2.578125 C 2.535156 -4.546875 1.59375 -7.207031 1.59375 -10.5625 C 1.59375 -13.988281 2.515625 -16.648438 4.359375 -18.546875 C 6.210938 -20.441406 8.8125 -21.390625 12.15625 -21.390625 C 14.21875 -21.390625 16.039062 -20.953125 17.625 -20.078125 C 19.207031 -19.203125 20.425781 -17.941406 21.28125 -16.296875 C 22.144531 -14.660156 22.578125 -12.75 22.578125 -10.5625 Z M 8.96875 -10.5625 C 8.96875 -8.75 9.207031 -7.367188 9.6875 -6.421875 C 10.164062 -5.484375 10.972656 -5.015625 12.109375 -5.015625 C 13.242188 -5.015625 14.039062 -5.484375 14.5 -6.421875 C 14.96875 -7.367188 15.203125 -8.75 15.203125 -10.5625 C 15.203125 -12.351562 14.960938 -13.707031 14.484375 -14.625 C 14.015625 -15.539062 13.210938 -16 12.078125 -16 C 10.960938 -16 10.164062 -15.539062 9.6875 -14.625 C 9.207031 -13.71875 8.96875 -12.363281 8.96875 -10.5625 Z M 8.96875 -10.5625 "/></g></g></g><g fill="#000000" fill-opacity="1"><g transform="translate(257.112062, 167.987934)"><g><path d="M 15.765625 0 L 15.765625 -11.46875 C 15.765625 -12.863281 15.5625 -13.914062 15.15625 -14.625 C 14.757812 -15.34375 14.117188 -15.703125 13.234375 -15.703125 C 12.003906 -15.703125 11.117188 -15.210938 10.578125 -14.234375 C 10.035156 -13.253906 9.765625 -11.578125 9.765625 -9.203125 L 9.765625 0 L 2.5 0 L 2.5 -21.015625 L 7.984375 -21.015625 L 8.890625 -18.421875 L 9.3125 -18.421875 C 9.9375 -19.410156 10.796875 -20.148438 11.890625 -20.640625 C 12.984375 -21.140625 14.238281 -21.390625 15.65625 -21.390625 C 17.988281 -21.390625 19.800781 -20.710938 21.09375 -19.359375 C 22.382812 -18.015625 23.03125 -16.117188 23.03125 -13.671875 L 23.03125 0 Z M 15.765625 0 "/></g></g></g><g fill="#000000" fill-opacity="1"><g transform="translate(282.563858, 167.987934)"><g><path d="M 16.21875 0 L 14.828125 -2.78125 L 14.671875 -2.78125 C 13.703125 -1.570312 12.707031 -0.742188 11.6875 -0.296875 C 10.675781 0.148438 9.363281 0.375 7.75 0.375 C 5.769531 0.375 4.210938 -0.21875 3.078125 -1.40625 C 1.941406 -2.59375 1.375 -4.265625 1.375 -6.421875 C 1.375 -8.660156 2.148438 -10.328125 3.703125 -11.421875 C 5.265625 -12.515625 7.523438 -13.128906 10.484375 -13.265625 L 13.984375 -13.375 L 13.984375 -13.671875 C 13.984375 -15.398438 13.132812 -16.265625 11.4375 -16.265625 C 9.894531 -16.265625 7.941406 -15.75 5.578125 -14.71875 L 3.484375 -19.5 C 5.929688 -20.757812 9.023438 -21.390625 12.765625 -21.390625 C 15.460938 -21.390625 17.550781 -20.722656 19.03125 -19.390625 C 20.507812 -18.054688 21.25 -16.1875 21.25 -13.78125 L 21.25 0 Z M 10.84375 -4.75 C 11.71875 -4.75 12.46875 -5.023438 13.09375 -5.578125 C 13.71875 -6.140625 14.03125 -6.863281 14.03125 -7.75 L 14.03125 -9.390625 L 12.359375 -9.3125 C 9.972656 -9.226562 8.78125 -8.351562 8.78125 -6.6875 C 8.78125 -5.394531 9.46875 -4.75 10.84375 -4.75 Z M 10.84375 -4.75 "/></g></g></g><g fill="#000000" fill-opacity="1"><g transform="translate(306.23477, 167.987934)"><g><path d="M 9.765625 0 L 2.5 0 L 2.5 -28.875 L 9.765625 -28.875 Z M 9.765625 0 "/></g></g></g><g fill="#000000" fill-opacity="1"><g transform="translate(107.332028, 220.48793)"><g><path d="M 10.265625 -9.875 L 10.265625 0 L 2.9375 0 L 2.9375 -27.125 L 11.8125 -27.125 C 19.1875 -27.125 22.875 -24.453125 22.875 -19.109375 C 22.875 -15.972656 21.34375 -13.539062 18.28125 -11.8125 L 26.1875 0 L 17.875 0 L 12.109375 -9.875 Z M 10.265625 -15.375 L 11.640625 -15.375 C 14.191406 -15.375 15.46875 -16.507812 15.46875 -18.78125 C 15.46875 -20.644531 14.210938 -21.578125 11.703125 -21.578125 L 10.265625 -21.578125 Z M 10.265625 -15.375 "/></g></g></g><g fill="#000000" fill-opacity="1"><g transform="translate(133.043536, 220.48793)"><g><path d="M 12.65625 0.375 C 9.15625 0.375 6.4375 -0.554688 4.5 -2.421875 C 2.5625 -4.285156 1.59375 -6.9375 1.59375 -10.375 C 1.59375 -13.925781 2.488281 -16.648438 4.28125 -18.546875 C 6.082031 -20.441406 8.644531 -21.390625 11.96875 -21.390625 C 15.132812 -21.390625 17.578125 -20.5625 19.296875 -18.90625 C 21.023438 -17.257812 21.890625 -14.882812 21.890625 -11.78125 L 21.890625 -8.546875 L 8.921875 -8.546875 C 8.972656 -7.378906 9.40625 -6.457031 10.21875 -5.78125 C 11.03125 -5.113281 12.132812 -4.78125 13.53125 -4.78125 C 14.800781 -4.78125 15.96875 -4.898438 17.03125 -5.140625 C 18.101562 -5.390625 19.265625 -5.804688 20.515625 -6.390625 L 20.515625 -1.171875 C 19.378906 -0.585938 18.203125 -0.1875 16.984375 0.03125 C 15.773438 0.257812 14.332031 0.375 12.65625 0.375 Z M 12.234375 -16.453125 C 11.378906 -16.453125 10.660156 -16.179688 10.078125 -15.640625 C 9.503906 -15.109375 9.171875 -14.269531 9.078125 -13.125 L 15.3125 -13.125 C 15.28125 -14.132812 14.988281 -14.941406 14.4375 -15.546875 C 13.894531 -16.148438 13.160156 -16.453125 12.234375 -16.453125 Z M 12.234375 -16.453125 "/></g></g></g><g fill="#000000" fill-opacity="1"><g transform="translate(156.528939, 220.48793)"><g><path d="M 15.34375 -15.59375 L 10.875 -15.59375 L 10.875 0 L 3.625 0 L 3.625 -15.59375 L 0.828125 -15.59375 L 0.828125 -19.15625 L 3.765625 -20.9375 L 3.765625 -21.28125 C 3.765625 -24.050781 4.328125 -26.039062 5.453125 -27.25 C 6.585938 -28.46875 8.40625 -29.078125 10.90625 -29.078125 C 11.875 -29.078125 12.785156 -29 13.640625 -28.84375 C 14.503906 -28.695312 15.503906 -28.441406 16.640625 -28.078125 L 15.078125 -23.375 C 14.191406 -23.625 13.320312 -23.75 12.46875 -23.75 C 11.914062 -23.75 11.507812 -23.578125 11.25 -23.234375 C 11 -22.898438 10.875 -22.347656 10.875 -21.578125 L 10.875 -21.015625 L 15.34375 -21.015625 Z M 15.34375 -15.59375 "/></g></g></g><g fill="#000000" fill-opacity="1"><g transform="translate(172.222977, 220.48793)"><g><path d="M 17.484375 0 L 16.5625 -2.609375 L 16.140625 -2.609375 C 15.535156 -1.648438 14.691406 -0.910156 13.609375 -0.390625 C 12.523438 0.117188 11.253906 0.375 9.796875 0.375 C 7.484375 0.375 5.679688 -0.296875 4.390625 -1.640625 C 3.109375 -2.984375 2.46875 -4.878906 2.46875 -7.328125 L 2.46875 -21.015625 L 9.71875 -21.015625 L 9.71875 -9.53125 C 9.71875 -8.164062 9.910156 -7.128906 10.296875 -6.421875 C 10.691406 -5.710938 11.335938 -5.359375 12.234375 -5.359375 C 13.484375 -5.359375 14.375 -5.847656 14.90625 -6.828125 C 15.4375 -7.816406 15.703125 -9.476562 15.703125 -11.8125 L 15.703125 -21.015625 L 22.953125 -21.015625 L 22.953125 0 Z M 17.484375 0 "/></g></g></g><g fill="#000000" fill-opacity="1"><g transform="translate(197.674773, 220.48793)"><g><path d="M 22.34375 -21.015625 L 22.34375 -17.515625 L 19.46875 -16.453125 C 19.863281 -15.734375 20.0625 -14.898438 20.0625 -13.953125 C 20.0625 -11.691406 19.265625 -9.9375 17.671875 -8.6875 C 16.085938 -7.4375 13.71875 -6.8125 10.5625 -6.8125 C 9.78125 -6.8125 9.160156 -6.859375 8.703125 -6.953125 C 8.523438 -6.628906 8.4375 -6.328125 8.4375 -6.046875 C 8.4375 -5.691406 8.726562 -5.414062 9.3125 -5.21875 C 9.894531 -5.03125 10.65625 -4.9375 11.59375 -4.9375 L 15.078125 -4.9375 C 19.796875 -4.9375 22.15625 -2.953125 22.15625 1.015625 C 22.15625 3.578125 21.0625 5.566406 18.875 6.984375 C 16.695312 8.410156 13.632812 9.125 9.6875 9.125 C 6.707031 9.125 4.410156 8.625 2.796875 7.625 C 1.179688 6.632812 0.375 5.207031 0.375 3.34375 C 0.375 0.832031 1.929688 -0.785156 5.046875 -1.515625 C 4.398438 -1.796875 3.835938 -2.238281 3.359375 -2.84375 C 2.890625 -3.445312 2.65625 -4.046875 2.65625 -4.640625 C 2.65625 -5.296875 2.832031 -5.875 3.1875 -6.375 C 3.550781 -6.875 4.300781 -7.472656 5.4375 -8.171875 C 4.34375 -8.648438 3.484375 -9.398438 2.859375 -10.421875 C 2.242188 -11.453125 1.9375 -12.703125 1.9375 -14.171875 C 1.9375 -16.460938 2.710938 -18.238281 4.265625 -19.5 C 5.828125 -20.757812 8.054688 -21.390625 10.953125 -21.390625 C 11.328125 -21.390625 11.984375 -21.347656 12.921875 -21.265625 C 13.867188 -21.179688 14.566406 -21.097656 15.015625 -21.015625 Z M 6.5 2.609375 C 6.5 3.203125 6.816406 3.679688 7.453125 4.046875 C 8.097656 4.421875 8.957031 4.609375 10.03125 4.609375 C 11.789062 4.609375 13.195312 4.382812 14.25 3.9375 C 15.3125 3.5 15.84375 2.9375 15.84375 2.25 C 15.84375 1.6875 15.519531 1.289062 14.875 1.0625 C 14.238281 0.832031 13.316406 0.71875 12.109375 0.71875 L 9.28125 0.71875 C 8.5 0.71875 7.835938 0.898438 7.296875 1.265625 C 6.765625 1.628906 6.5 2.078125 6.5 2.609375 Z M 8.78125 -14.140625 C 8.78125 -11.984375 9.523438 -10.90625 11.015625 -10.90625 C 11.710938 -10.90625 12.25 -11.171875 12.625 -11.703125 C 13 -12.234375 13.1875 -13.035156 13.1875 -14.109375 C 13.1875 -16.285156 12.460938 -17.375 11.015625 -17.375 C 9.523438 -17.375 8.78125 -16.296875 8.78125 -14.140625 Z M 8.78125 -14.140625 "/></g></g></g><g fill="#000000" fill-opacity="1"><g transform="translate(220.696405, 220.48793)"><g><path d="M 12.65625 0.375 C 9.15625 0.375 6.4375 -0.554688 4.5 -2.421875 C 2.5625 -4.285156 1.59375 -6.9375 1.59375 -10.375 C 1.59375 -13.925781 2.488281 -16.648438 4.28125 -18.546875 C 6.082031 -20.441406 8.644531 -21.390625 11.96875 -21.390625 C 15.132812 -21.390625 17.578125 -20.5625 19.296875 -18.90625 C 21.023438 -17.257812 21.890625 -14.882812 21.890625 -11.78125 L 21.890625 -8.546875 L 8.921875 -8.546875 C 8.972656 -7.378906 9.40625 -6.457031 10.21875 -5.78125 C 11.03125 -5.113281 12.132812 -4.78125 13.53125 -4.78125 C 14.800781 -4.78125 15.96875 -4.898438 17.03125 -5.140625 C 18.101562 -5.390625 19.265625 -5.804688 20.515625 -6.390625 L 20.515625 -1.171875 C 19.378906 -0.585938 18.203125 -0.1875 16.984375 0.03125 C 15.773438 0.257812 14.332031 0.375 12.65625 0.375 Z M 12.234375 -16.453125 C 11.378906 -16.453125 10.660156 -16.179688 10.078125 -15.640625 C 9.503906 -15.109375 9.171875 -14.269531 9.078125 -13.125 L 15.3125 -13.125 C 15.28125 -14.132812 14.988281 -14.941406 14.4375 -15.546875 C 13.894531 -16.148438 13.160156 -16.453125 12.234375 -16.453125 Z M 12.234375 -16.453125 "/></g></g></g><g fill="#000000" fill-opacity="1"><g transform="translate(244.181808, 220.48793)"><g><path d="M 12.65625 0.375 C 9.15625 0.375 6.4375 -0.554688 4.5 -2.421875 C 2.5625 -4.285156 1.59375 -6.9375 1.59375 -10.375 C 1.59375 -13.925781 2.488281 -16.648438 4.28125 -18.546875 C 6.082031 -20.441406 8.644531 -21.390625 11.96875 -21.390625 C 15.132812 -21.390625 17.578125 -20.5625 19.296875 -18.90625 C 21.023438 -17.257812 21.890625 -14.882812 21.890625 -11.78125 L 21.890625 -8.546875 L 8.921875 -8.546875 C 8.972656 -7.378906 9.40625 -6.457031 10.21875 -5.78125 C 11.03125 -5.113281 12.132812 -4.78125 13.53125 -4.78125 C 14.800781 -4.78125 15.96875 -4.898438 17.03125 -5.140625 C 18.101562 -5.390625 19.265625 -5.804688 20.515625 -6.390625 L 20.515625 -1.171875 C 19.378906 -0.585938 18.203125 -0.1875 16.984375 0.03125 C 15.773438 0.257812 14.332031 0.375 12.65625 0.375 Z M 12.234375 -16.453125 C 11.378906 -16.453125 10.660156 -16.179688 10.078125 -15.640625 C 9.503906 -15.109375 9.171875 -14.269531 9.078125 -13.125 L 15.3125 -13.125 C 15.28125 -14.132812 14.988281 -14.941406 14.4375 -15.546875 C 13.894531 -16.148438 13.160156 -16.453125 12.234375 -16.453125 Z M 12.234375 -16.453125 "/></g></g></g><g fill="#000000" fill-opacity="1"><g transform="translate(95.144529, 272.987927)"><g><path d="M 25.953125 -14.140625 C 25.953125 -9.609375 24.707031 -6.117188 22.21875 -3.671875 C 19.726562 -1.222656 16.222656 0 11.703125 0 L 2.9375 0 L 2.9375 -27.125 L 12.328125 -27.125 C 16.679688 -27.125 20.039062 -26.007812 22.40625 -23.78125 C 24.769531 -21.5625 25.953125 -18.347656 25.953125 -14.140625 Z M 18.34375 -13.875 C 18.34375 -16.363281 17.851562 -18.207031 16.875 -19.40625 C 15.894531 -20.601562 14.398438 -21.203125 12.390625 -21.203125 L 10.265625 -21.203125 L 10.265625 -6.015625 L 11.890625 -6.015625 C 14.117188 -6.015625 15.75 -6.660156 16.78125 -7.953125 C 17.820312 -9.242188 18.34375 -11.21875 18.34375 -13.875 Z M 18.34375 -13.875 "/></g></g></g><g fill="#000000" fill-opacity="1"><g transform="translate(123.026489, 272.987927)"><g><path d="M 9.796875 0 L 2.546875 0 L 2.546875 -21.015625 L 9.796875 -21.015625 Z M 2.359375 -26.25 C 2.359375 -27.34375 2.660156 -28.15625 3.265625 -28.6875 C 3.867188 -29.21875 4.847656 -29.484375 6.203125 -29.484375 C 7.546875 -29.484375 8.523438 -29.207031 9.140625 -28.65625 C 9.765625 -28.113281 10.078125 -27.3125 10.078125 -26.25 C 10.078125 -24.125 8.785156 -23.0625 6.203125 -23.0625 C 3.640625 -23.0625 2.359375 -24.125 2.359375 -26.25 Z M 2.359375 -26.25 "/></g></g></g><g fill="#000000" fill-opacity="1"><g transform="translate(135.381369, 272.987927)"><g><path d="M 15.203125 -21.390625 C 15.828125 -21.390625 16.425781 -21.34375 17 -21.25 L 17.40625 -21.171875 L 16.75 -14.328125 C 16.15625 -14.472656 15.332031 -14.546875 14.28125 -14.546875 C 12.695312 -14.546875 11.546875 -14.179688 10.828125 -13.453125 C 10.117188 -12.734375 9.765625 -11.691406 9.765625 -10.328125 L 9.765625 0 L 2.5 0 L 2.5 -21.015625 L 7.90625 -21.015625 L 9.03125 -17.671875 L 9.390625 -17.671875 C 9.992188 -18.773438 10.835938 -19.671875 11.921875 -20.359375 C 13.003906 -21.046875 14.097656 -21.390625 15.203125 -21.390625 Z M 15.203125 -21.390625 "/></g></g></g><g fill="#000000" fill-opacity="1"><g transform="translate(153.208757, 272.987927)"><g><path d="M 12.65625 0.375 C 9.15625 0.375 6.4375 -0.554688 4.5 -2.421875 C 2.5625 -4.285156 1.59375 -6.9375 1.59375 -10.375 C 1.59375 -13.925781 2.488281 -16.648438 4.28125 -18.546875 C 6.082031 -20.441406 8.644531 -21.390625 11.96875 -21.390625 C 15.132812 -21.390625 17.578125 -20.5625 19.296875 -18.90625 C 21.023438 -17.257812 21.890625 -14.882812 21.890625 -11.78125 L 21.890625 -8.546875 L 8.921875 -8.546875 C 8.972656 -7.378906 9.40625 -6.457031 10.21875 -5.78125 C 11.03125 -5.113281 12.132812 -4.78125 13.53125 -4.78125 C 14.800781 -4.78125 15.96875 -4.898438 17.03125 -5.140625 C 18.101562 -5.390625 19.265625 -5.804688 20.515625 -6.390625 L 20.515625 -1.171875 C 19.378906 -0.585938 18.203125 -0.1875 16.984375 0.03125 C 15.773438 0.257812 14.332031 0.375 12.65625 0.375 Z M 12.234375 -16.453125 C 11.378906 -16.453125 10.660156 -16.179688 10.078125 -15.640625 C 9.503906 -15.109375 9.171875 -14.269531 9.078125 -13.125 L 15.3125 -13.125 C 15.28125 -14.132812 14.988281 -14.941406 14.4375 -15.546875 C 13.894531 -16.148438 13.160156 -16.453125 12.234375 -16.453125 Z M 12.234375 -16.453125 "/></g></g></g><g fill="#000000" fill-opacity="1"><g transform="translate(176.69416, 272.987927)"><g><path d="M 12.078125 0.375 C 8.640625 0.375 6.03125 -0.550781 4.25 -2.40625 C 2.476562 -4.269531 1.59375 -6.9375 1.59375 -10.40625 C 1.59375 -13.894531 2.550781 -16.597656 4.46875 -18.515625 C 6.382812 -20.429688 9.113281 -21.390625 12.65625 -21.390625 C 15.09375 -21.390625 17.382812 -20.859375 19.53125 -19.796875 L 17.40625 -14.4375 C 16.53125 -14.820312 15.71875 -15.128906 14.96875 -15.359375 C 14.226562 -15.585938 13.457031 -15.703125 12.65625 -15.703125 C 11.476562 -15.703125 10.566406 -15.242188 9.921875 -14.328125 C 9.285156 -13.410156 8.96875 -12.117188 8.96875 -10.453125 C 8.96875 -7.085938 10.207031 -5.40625 12.6875 -5.40625 C 14.820312 -5.40625 16.863281 -6.019531 18.8125 -7.25 L 18.8125 -1.484375 C 16.945312 -0.242188 14.703125 0.375 12.078125 0.375 Z M 12.078125 0.375 "/></g></g></g><g fill="#000000" fill-opacity="1"><g transform="translate(197.174323, 272.987927)"><g><path d="M 12.796875 -5.359375 C 13.773438 -5.359375 14.945312 -5.601562 16.3125 -6.09375 L 16.3125 -0.796875 C 15.332031 -0.378906 14.398438 -0.0820312 13.515625 0.09375 C 12.628906 0.28125 11.59375 0.375 10.40625 0.375 C 7.96875 0.375 6.210938 -0.21875 5.140625 -1.40625 C 4.066406 -2.601562 3.53125 -4.441406 3.53125 -6.921875 L 3.53125 -15.59375 L 0.984375 -15.59375 L 0.984375 -18.53125 L 4.21875 -20.8125 L 6.09375 -25.234375 L 10.84375 -25.234375 L 10.84375 -21.015625 L 16 -21.015625 L 16 -15.59375 L 10.84375 -15.59375 L 10.84375 -7.40625 C 10.84375 -6.039062 11.492188 -5.359375 12.796875 -5.359375 Z M 12.796875 -5.359375 "/></g></g></g><g fill="#000000" fill-opacity="1"><g transform="translate(214.649244, 272.987927)"><g><path d="M 22.578125 -10.5625 C 22.578125 -7.125 21.648438 -4.441406 19.796875 -2.515625 C 17.953125 -0.585938 15.367188 0.375 12.046875 0.375 C 8.847656 0.375 6.304688 -0.609375 4.421875 -2.578125 C 2.535156 -4.546875 1.59375 -7.207031 1.59375 -10.5625 C 1.59375 -13.988281 2.515625 -16.648438 4.359375 -18.546875 C 6.210938 -20.441406 8.8125 -21.390625 12.15625 -21.390625 C 14.21875 -21.390625 16.039062 -20.953125 17.625 -20.078125 C 19.207031 -19.203125 20.425781 -17.941406 21.28125 -16.296875 C 22.144531 -14.660156 22.578125 -12.75 22.578125 -10.5625 Z M 8.96875 -10.5625 C 8.96875 -8.75 9.207031 -7.367188 9.6875 -6.421875 C 10.164062 -5.484375 10.972656 -5.015625 12.109375 -5.015625 C 13.242188 -5.015625 14.039062 -5.484375 14.5 -6.421875 C 14.96875 -7.367188 15.203125 -8.75 15.203125 -10.5625 C 15.203125 -12.351562 14.960938 -13.707031 14.484375 -14.625 C 14.015625 -15.539062 13.210938 -16 12.078125 -16 C 10.960938 -16 10.164062 -15.539062 9.6875 -14.625 C 9.207031 -13.71875 8.96875 -12.363281 8.96875 -10.5625 Z M 8.96875 -10.5625 "/></g></g></g><g fill="#000000" fill-opacity="1"><g transform="translate(238.858131, 272.987927)"><g><path d="M 15.203125 -21.390625 C 15.828125 -21.390625 16.425781 -21.34375 17 -21.25 L 17.40625 -21.171875 L 16.75 -14.328125 C 16.15625 -14.472656 15.332031 -14.546875 14.28125 -14.546875 C 12.695312 -14.546875 11.546875 -14.179688 10.828125 -13.453125 C 10.117188 -12.734375 9.765625 -11.691406 9.765625 -10.328125 L 9.765625 0 L 2.5 0 L 2.5 -21.015625 L 7.90625 -21.015625 L 9.03125 -17.671875 L 9.390625 -17.671875 C 9.992188 -18.773438 10.835938 -19.671875 11.921875 -20.359375 C 13.003906 -21.046875 14.097656 -21.390625 15.203125 -21.390625 Z M 15.203125 -21.390625 "/></g></g></g><g fill="#000000" fill-opacity="1"><g transform="translate(256.685519, 272.987927)"><g><path d="M -0.03125 -21.015625 L 7.609375 -21.015625 L 11.171875 -8.96875 C 11.347656 -8.332031 11.460938 -7.570312 11.515625 -6.6875 L 11.671875 -6.6875 C 11.765625 -7.53125 11.910156 -8.273438 12.109375 -8.921875 L 15.765625 -21.015625 L 23.171875 -21.015625 L 14.859375 1.34375 C 13.796875 4.1875 12.488281 6.191406 10.9375 7.359375 C 9.382812 8.535156 7.359375 9.125 4.859375 9.125 C 3.898438 9.125 2.910156 9.019531 1.890625 8.8125 L 1.890625 3.125 C 2.546875 3.269531 3.296875 3.34375 4.140625 3.34375 C 4.785156 3.34375 5.347656 3.21875 5.828125 2.96875 C 6.304688 2.71875 6.722656 2.367188 7.078125 1.921875 C 7.441406 1.472656 7.828125 0.734375 8.234375 -0.296875 Z M -0.03125 -21.015625 "/></g></g></g></svg>