<svg xmlns="http://www.w3.org/2000/svg" xmlns:xlink="http://www.w3.org/1999/xlink" width="500" zoomAndPan="magnify" viewBox="0 0 375 374.999991" height="500" preserveAspectRatio="xMidYMid meet" version="1.0"><defs><filter x="0%" y="0%" width="100%" height="100%" id="id1"><feColorMatrix values="0 0 0 0 1 0 0 0 0 1 0 0 0 0 1 0 0 0 1 0" color-interpolation-filters="sRGB"/></filter><g/><mask id="id2"><g filter="url(#id1)"><rect x="-37.5" width="450" fill="#000000" y="-37.499999" height="449.999989" fill-opacity="0.7098"/></g></mask><clipPath id="id3"><path d="M 0.714844 0.714844 L 188.214844 0.714844 L 188.214844 188.214844 L 0.714844 188.214844 Z M 0.714844 0.714844 " clip-rule="nonzero"/></clipPath><clipPath id="id4"><rect x="0" width="189" y="0" height="189"/></clipPath><clipPath id="id5"><path d="M 112.5 225 L 185 225 L 185 375 L 112.5 375 Z M 112.5 225 " clip-rule="nonzero"/></clipPath><clipPath id="id6"><path d="M 190 225 L 262.5 225 L 262.5 375 L 190 375 Z M 190 225 " clip-rule="nonzero"/></clipPath></defs><path fill="#004aad" d="M 187.5 0 C 83.949219 0 0 83.949219 0 187.5 C 0 291.050781 83.949219 375 187.5 375 C 291.050781 375 375 291.050781 375 187.5 C 375 83.949219 291.050781 0 187.5 0 Z M 21.355469 197.917969 L 62.84375 197.917969 C 63.800781 224.019531 68.28125 248.65625 75.644531 270.832031 L 43.3125 270.832031 C 30.738281 249.136719 23 224.386719 21.355469 197.917969 Z M 197.917969 83.332031 L 197.917969 21.675781 C 226.53125 26.21875 251.6875 49.332031 268.738281 83.332031 Z M 277.613281 104.167969 C 285.46875 125.863281 290.3125 150.625 291.332031 177.082031 L 197.917969 177.082031 L 197.917969 104.167969 Z M 177.082031 21.675781 L 177.082031 83.332031 L 106.261719 83.332031 C 123.300781 49.332031 148.46875 26.21875 177.082031 21.675781 Z M 177.082031 104.167969 L 177.082031 177.082031 L 83.667969 177.082031 C 84.6875 150.625 89.53125 125.863281 97.386719 104.167969 Z M 62.855469 177.082031 L 21.355469 177.082031 C 23 150.625 30.738281 125.863281 43.300781 104.167969 L 75.636719 104.167969 C 68.292969 126.34375 63.8125 150.988281 62.855469 177.082031 Z M 83.667969 197.917969 L 177.082031 197.917969 L 177.082031 270.832031 L 97.386719 270.832031 C 89.53125 249.136719 84.6875 224.386719 83.667969 197.917969 Z M 177.082031 291.667969 L 177.082031 353.324219 C 148.46875 348.769531 123.300781 325.667969 106.261719 291.667969 Z M 197.917969 353.324219 L 197.917969 291.667969 L 268.75 291.667969 C 251.699219 325.667969 226.53125 348.769531 197.917969 353.324219 Z M 197.917969 270.832031 L 197.917969 197.917969 L 291.34375 197.917969 C 290.3125 224.386719 285.480469 249.136719 277.625 270.832031 Z M 312.15625 197.917969 L 353.636719 197.917969 C 352 224.386719 344.261719 249.136719 331.6875 270.832031 L 299.355469 270.832031 C 306.707031 248.65625 311.1875 224.019531 312.15625 197.917969 Z M 312.15625 177.082031 C 311.1875 150.988281 306.707031 126.34375 299.355469 104.167969 L 331.6875 104.167969 C 344.261719 125.863281 352 150.625 353.636719 177.082031 Z M 317.488281 83.332031 L 291.417969 83.332031 C 283.949219 66.625 274.6875 51.925781 264.136719 39.59375 C 284.855469 50.34375 303.011719 65.28125 317.488281 83.332031 Z M 110.863281 39.59375 C 100.300781 51.925781 91.042969 66.625 83.574219 83.332031 L 57.511719 83.332031 C 71.988281 65.28125 90.144531 50.355469 110.863281 39.59375 Z M 57.511719 291.667969 L 83.582031 291.667969 C 91.042969 308.375 100.300781 323.074219 110.863281 335.394531 C 90.144531 324.644531 71.988281 309.71875 57.511719 291.667969 Z M 264.136719 335.394531 C 274.699219 323.0625 283.949219 308.375 291.417969 291.667969 L 317.488281 291.667969 C 303.011719 309.71875 284.855469 324.644531 264.136719 335.394531 Z M 264.136719 335.394531 " fill-opacity="1" fill-rule="nonzero"/><g mask="url(#id2)"><g transform="matrix(1, 0, 0, 1, 93, 93)"><g clip-path="url(#id4)"><g clip-path="url(#id3)"><path fill="#ffde59" d="M 188.214844 94.464844 C 188.214844 96 188.179688 97.535156 188.101562 99.066406 C 188.027344 100.597656 187.914062 102.128906 187.765625 103.65625 C 187.613281 105.183594 187.425781 106.703125 187.203125 108.222656 C 186.976562 109.738281 186.714844 111.25 186.414062 112.757812 C 186.117188 114.261719 185.78125 115.757812 185.40625 117.246094 C 185.035156 118.734375 184.625 120.210938 184.179688 121.679688 C 183.734375 123.148438 183.253906 124.605469 182.734375 126.050781 C 182.21875 127.496094 181.667969 128.925781 181.082031 130.34375 C 180.492188 131.761719 179.871094 133.164062 179.214844 134.550781 C 178.558594 135.9375 177.871094 137.308594 177.148438 138.660156 C 176.421875 140.011719 175.667969 141.347656 174.878906 142.664062 C 174.089844 143.980469 173.269531 145.277344 172.417969 146.550781 C 171.5625 147.828125 170.679688 149.082031 169.765625 150.3125 C 168.851562 151.546875 167.910156 152.753906 166.9375 153.941406 C 165.960938 155.125 164.960938 156.289062 163.929688 157.425781 C 162.898438 158.5625 161.84375 159.671875 160.757812 160.757812 C 159.671875 161.84375 158.5625 162.898438 157.425781 163.929688 C 156.289062 164.960938 155.125 165.960938 153.941406 166.9375 C 152.753906 167.910156 151.546875 168.851562 150.3125 169.765625 C 149.082031 170.679688 147.828125 171.5625 146.550781 172.417969 C 145.277344 173.269531 143.980469 174.089844 142.664062 174.878906 C 141.347656 175.667969 140.011719 176.421875 138.660156 177.148438 C 137.308594 177.871094 135.9375 178.558594 134.550781 179.214844 C 133.164062 179.871094 131.761719 180.492188 130.34375 181.082031 C 128.925781 181.667969 127.496094 182.21875 126.050781 182.734375 C 124.605469 183.253906 123.148438 183.734375 121.679688 184.179688 C 120.210938 184.625 118.734375 185.035156 117.246094 185.40625 C 115.757812 185.78125 114.261719 186.117188 112.757812 186.414062 C 111.25 186.714844 109.738281 186.976562 108.222656 187.203125 C 106.703125 187.425781 105.183594 187.613281 103.65625 187.765625 C 102.128906 187.914062 100.597656 188.027344 99.066406 188.101562 C 97.535156 188.179688 96 188.214844 94.464844 188.214844 C 92.933594 188.214844 91.398438 188.179688 89.867188 188.101562 C 88.332031 188.027344 86.804688 187.914062 85.277344 187.765625 C 83.75 187.613281 82.226562 187.425781 80.710938 187.203125 C 79.191406 186.976562 77.679688 186.714844 76.175781 186.414062 C 74.671875 186.117188 73.175781 185.78125 71.6875 185.40625 C 70.199219 185.035156 68.71875 184.625 67.253906 184.179688 C 65.785156 183.734375 64.328125 183.253906 62.882812 182.734375 C 61.4375 182.21875 60.007812 181.667969 58.589844 181.082031 C 57.171875 180.492188 55.769531 179.871094 54.382812 179.214844 C 52.996094 178.558594 51.625 177.871094 50.273438 177.148438 C 48.917969 176.421875 47.585938 175.667969 46.269531 174.878906 C 44.953125 174.089844 43.65625 173.269531 42.382812 172.417969 C 41.105469 171.5625 39.851562 170.679688 38.621094 169.765625 C 37.386719 168.851562 36.179688 167.910156 34.992188 166.9375 C 33.804688 165.960938 32.644531 164.960938 31.507812 163.929688 C 30.371094 162.898438 29.261719 161.84375 28.175781 160.757812 C 27.089844 159.671875 26.03125 158.5625 25.003906 157.425781 C 23.972656 156.289062 22.96875 155.125 21.996094 153.941406 C 21.023438 152.753906 20.078125 151.546875 19.164062 150.3125 C 18.25 149.082031 17.367188 147.828125 16.515625 146.550781 C 15.664062 145.277344 14.84375 143.980469 14.054688 142.664062 C 13.265625 141.347656 12.507812 140.011719 11.785156 138.660156 C 11.0625 137.308594 10.375 135.9375 9.71875 134.550781 C 9.0625 133.164062 8.441406 131.761719 7.851562 130.34375 C 7.265625 128.925781 6.714844 127.496094 6.195312 126.050781 C 5.679688 124.605469 5.199219 123.148438 4.753906 121.679688 C 4.308594 120.210938 3.898438 118.734375 3.527344 117.246094 C 3.152344 115.757812 2.816406 114.261719 2.519531 112.757812 C 2.21875 111.25 1.957031 109.738281 1.730469 108.222656 C 1.507812 106.703125 1.316406 105.183594 1.167969 103.65625 C 1.015625 102.128906 0.90625 100.597656 0.828125 99.066406 C 0.753906 97.535156 0.714844 96 0.714844 94.464844 C 0.714844 92.933594 0.753906 91.398438 0.828125 89.867188 C 0.90625 88.332031 1.015625 86.804688 1.167969 85.277344 C 1.316406 83.75 1.507812 82.226562 1.730469 80.710938 C 1.957031 79.191406 2.21875 77.679688 2.519531 76.175781 C 2.816406 74.671875 3.152344 73.175781 3.527344 71.6875 C 3.898438 70.199219 4.308594 68.71875 4.753906 67.253906 C 5.199219 65.785156 5.679688 64.328125 6.195312 62.882812 C 6.714844 61.4375 7.265625 60.007812 7.851562 58.589844 C 8.441406 57.171875 9.0625 55.769531 9.71875 54.382812 C 10.375 52.996094 11.0625 51.625 11.785156 50.273438 C 12.507812 48.917969 13.265625 47.585938 14.054688 46.269531 C 14.84375 44.953125 15.664062 43.65625 16.515625 42.382812 C 17.367188 41.105469 18.25 39.851562 19.164062 38.621094 C 20.078125 37.386719 21.023438 36.179688 21.996094 34.992188 C 22.96875 33.804688 23.972656 32.644531 25.003906 31.507812 C 26.03125 30.371094 27.089844 29.261719 28.175781 28.175781 C 29.261719 27.089844 30.371094 26.03125 31.507812 25.003906 C 32.644531 23.972656 33.804688 22.96875 34.992188 21.996094 C 36.179688 21.023438 37.386719 20.078125 38.621094 19.164062 C 39.851562 18.25 41.105469 17.367188 42.382812 16.515625 C 43.65625 15.664062 44.953125 14.84375 46.269531 14.054688 C 47.585938 13.265625 48.917969 12.507812 50.273438 11.785156 C 51.625 11.0625 52.996094 10.375 54.382812 9.71875 C 55.769531 9.0625 57.171875 8.441406 58.589844 7.851562 C 60.007812 7.265625 61.4375 6.714844 62.882812 6.195312 C 64.328125 5.679688 65.785156 5.199219 67.253906 4.753906 C 68.71875 4.308594 70.199219 3.898438 71.6875 3.527344 C 73.175781 3.152344 74.671875 2.816406 76.175781 2.519531 C 77.679688 2.21875 79.191406 1.957031 80.710938 1.730469 C 82.226562 1.507812 83.75 1.316406 85.277344 1.167969 C 86.804688 1.015625 88.332031 0.90625 89.867188 0.828125 C 91.398438 0.753906 92.933594 0.714844 94.464844 0.714844 C 96 0.714844 97.535156 0.753906 99.066406 0.828125 C 100.597656 0.90625 102.128906 1.015625 103.65625 1.167969 C 105.183594 1.316406 106.703125 1.507812 108.222656 1.730469 C 109.738281 1.957031 111.25 2.21875 112.757812 2.519531 C 114.261719 2.816406 115.757812 3.152344 117.246094 3.527344 C 118.734375 3.898438 120.210938 4.308594 121.679688 4.753906 C 123.148438 5.199219 124.605469 5.679688 126.050781 6.195312 C 127.496094 6.714844 128.925781 7.265625 130.34375 7.851562 C 131.761719 8.441406 133.164062 9.0625 134.550781 9.71875 C 135.9375 10.375 137.308594 11.0625 138.660156 11.785156 C 140.011719 12.507812 141.347656 13.265625 142.664062 14.054688 C 143.980469 14.84375 145.277344 15.664062 146.550781 16.515625 C 147.828125 17.367188 149.082031 18.25 150.3125 19.164062 C 151.546875 20.078125 152.753906 21.023438 153.941406 21.996094 C 155.125 22.96875 156.289062 23.972656 157.425781 25.003906 C 158.5625 26.03125 159.671875 27.089844 160.757812 28.175781 C 161.84375 29.261719 162.898438 30.371094 163.929688 31.507812 C 164.960938 32.644531 165.960938 33.804688 166.9375 34.992188 C 167.910156 36.179688 168.851562 37.386719 169.765625 38.621094 C 170.679688 39.851562 171.5625 41.105469 172.417969 42.382812 C 173.269531 43.65625 174.089844 44.953125 174.878906 46.269531 C 175.667969 47.585938 176.421875 48.917969 177.148438 50.273438 C 177.871094 51.625 178.558594 52.996094 179.214844 54.382812 C 179.871094 55.769531 180.492188 57.171875 181.082031 58.589844 C 181.667969 60.007812 182.21875 61.4375 182.734375 62.882812 C 183.253906 64.328125 183.734375 65.785156 184.179688 67.253906 C 184.625 68.71875 185.035156 70.199219 185.40625 71.6875 C 185.78125 73.175781 186.117188 74.671875 186.414062 76.175781 C 186.714844 77.679688 186.976562 79.191406 187.203125 80.710938 C 187.425781 82.226562 187.613281 83.75 187.765625 85.277344 C 187.914062 86.804688 188.027344 88.332031 188.101562 89.867188 C 188.179688 91.398438 188.214844 92.933594 188.214844 94.464844 Z M 188.214844 94.464844 " fill-opacity="1" fill-rule="nonzero"/></g></g></g></g><g clip-path="url(#id5)"><path fill="#040606" d="M 115.804688 310.496094 L 146.421875 334.957031 C 150.398438 338.136719 152.679688 342.886719 152.679688 347.972656 L 152.679688 372.320312 C 152.679688 373.796875 153.882812 375 155.355469 375 L 182.144531 375 C 183.617188 375 184.820312 373.796875 184.820312 372.320312 L 184.820312 317.515625 C 184.820312 312.125 182.71875 307.042969 178.898438 303.203125 L 136.367188 260.480469 C 134.816406 258.941406 132.273438 258.742188 130.496094 260.042969 C 128.488281 261.515625 128.070312 264.402344 129.511719 266.382812 C 129.542969 266.414062 152.617188 297.960938 152.617188 297.960938 C 152.636719 297.980469 152.636719 298.011719 152.648438 298.03125 L 162.859375 311.800781 C 163.75 312.984375 163.496094 314.667969 162.304688 315.546875 C 161.832031 315.902344 161.269531 316.070312 160.714844 316.070312 C 159.898438 316.070312 159.09375 315.695312 158.570312 314.992188 L 148.816406 301.851562 L 129.765625 296.171875 C 127.117188 295.363281 125.222656 292.980469 125.046875 290.238281 L 120.890625 228.316406 C 120.796875 226.621094 119.5 225.242188 117.855469 225.03125 C 117.824219 225.019531 117.792969 225.019531 117.773438 225.019531 C 117.636719 225.011719 117.523438 225 117.386719 225 C 116.550781 225 115.742188 225.304688 115.09375 225.867188 C 114.351562 226.515625 113.921875 227.417969 113.890625 228.410156 L 112.5 303.882812 C 112.457031 306.507812 113.691406 308.976562 115.804688 310.496094 " fill-opacity="1" fill-rule="nonzero"/></g><g clip-path="url(#id6)"><path fill="#040606" d="M 261.109375 228.378906 C 261.078125 227.417969 260.648438 226.515625 259.90625 225.867188 C 259.164062 225.21875 258.199219 224.917969 257.226562 225.019531 C 257.144531 225.03125 257.046875 225.03125 256.953125 225.03125 C 255.53125 225.199219 254.203125 226.601562 254.109375 228.285156 L 249.953125 290.25 C 249.777344 292.980469 247.882812 295.363281 245.246094 296.171875 L 226.183594 301.851562 L 216.429688 314.992188 C 215.90625 315.695312 215.101562 316.070312 214.285156 316.070312 C 213.730469 316.070312 213.167969 315.902344 212.695312 315.546875 C 211.503906 314.667969 211.25 312.984375 212.140625 311.800781 L 222.351562 298.03125 C 222.363281 298.011719 222.363281 297.980469 222.382812 297.960938 L 245.496094 266.359375 C 246.960938 264.351562 246.46875 261.464844 244.492188 260.03125 C 242.734375 258.753906 240.109375 258.996094 238.613281 260.5 C 238.589844 260.53125 196.101562 303.203125 196.101562 303.203125 C 192.28125 307.042969 190.179688 312.125 190.179688 317.515625 L 190.179688 372.320312 C 190.179688 373.796875 191.382812 375 192.855469 375 L 219.644531 375 C 221.117188 375 222.320312 373.796875 222.320312 372.320312 L 222.320312 347.972656 C 222.320312 342.886719 224.601562 338.136719 228.578125 334.957031 L 259.089844 310.578125 C 261.308594 308.976562 262.542969 306.507812 262.5 303.871094 L 261.109375 228.378906 " fill-opacity="1" fill-rule="nonzero"/></g><g fill="#000000" fill-opacity="1"><g transform="translate(180.017571, 143.999991)"><g><path d="M 3.3125 0 L 3.3125 -30.703125 L 11.65625 -30.703125 L 11.65625 0 Z M 3.3125 0 "/></g></g></g><g fill="#000000" fill-opacity="1"><g transform="translate(172.951165, 203.999987)"><g><path d="M 11.609375 -11.171875 L 11.609375 0 L 3.3125 0 L 3.3125 -30.703125 L 13.375 -30.703125 C 21.71875 -30.703125 25.890625 -27.675781 25.890625 -21.625 C 25.890625 -18.070312 24.15625 -15.320312 20.6875 -13.375 L 29.625 0 L 20.21875 0 L 13.703125 -11.171875 Z M 11.609375 -17.40625 L 13.171875 -17.40625 C 16.066406 -17.40625 17.515625 -18.6875 17.515625 -21.25 C 17.515625 -23.363281 16.09375 -24.421875 13.25 -24.421875 L 11.609375 -24.421875 Z M 11.609375 -17.40625 "/></g></g></g><g fill="#000000" fill-opacity="1"><g transform="translate(171.720696, 263.999983)"><g><path d="M 29.375 -16 C 29.375 -10.875 27.960938 -6.925781 25.140625 -4.15625 C 22.316406 -1.382812 18.351562 0 13.25 0 L 3.3125 0 L 3.3125 -30.703125 L 13.9375 -30.703125 C 18.863281 -30.703125 22.664062 -29.441406 25.34375 -26.921875 C 28.03125 -24.398438 29.375 -20.757812 29.375 -16 Z M 20.765625 -15.703125 C 20.765625 -18.515625 20.207031 -20.597656 19.09375 -21.953125 C 17.976562 -23.316406 16.289062 -24 14.03125 -24 L 11.609375 -24 L 11.609375 -6.796875 L 13.453125 -6.796875 C 15.972656 -6.796875 17.820312 -7.523438 19 -8.984375 C 20.175781 -10.453125 20.765625 -12.691406 20.765625 -15.703125 Z M 20.765625 -15.703125 "/></g></g></g></svg>